<?xml version="1.0" encoding="UTF-8"?>
<svg version="1.1" xmlns="http://www.w3.org/2000/svg" width="310" height="161">
<path d="M0 0 C102.3 0 204.6 0 310 0 C310 53.13 310 106.26 310 161 C207.7 161 105.4 161 0 161 C0 107.87 0 54.74 0 0 Z " fill="#FDFDFD" transform="translate(0,0)"/>
<path d="M0 0 C16.5 0 33 0 50 0 C50.99 2.31 51.98 4.62 53 7 C53.90538594 8.48844203 54.85509191 9.95141338 55.859375 11.375 C58.89258826 15.79578678 61.59804689 20.34300738 64.25 25 C65.20645097 26.66699974 66.16349512 28.33365926 67.12109375 30 C67.5991748 30.83273438 68.07725586 31.66546875 68.56982422 32.5234375 C70.78878632 36.36590107 73.05180256 40.18200029 75.3125 44 C78.47669475 49.3561543 81.55111861 54.74325636 84.484375 60.23046875 C85.67246567 62.4014901 86.89005243 64.54093779 88.140625 66.67578125 C88.69532471 67.62674683 88.69532471 67.62674683 89.26123047 68.59692383 C89.98922112 69.84082719 90.72241428 71.08170423 91.46142578 72.3190918 C93.09269791 75.11345219 94 76.70360406 94 80 C92.515 80.495 92.515 80.495 91 81 C90.67 82.98 90.34 84.96 90 87 C85.37359847 87.09901748 80.74781613 87.17153649 76.12060547 87.21972656 C74.54725396 87.2398188 72.97397692 87.26709799 71.40087891 87.30175781 C69.13685728 87.35038494 66.87382427 87.37299135 64.609375 87.390625 C63.90818542 87.41127014 63.20699585 87.43191528 62.48455811 87.45318604 C59.03615015 87.45476368 57.29632206 87.22735559 54.52441406 85.10058594 C53 83 53 83 53 81 C51.20949219 80.814375 51.20949219 80.814375 49.3828125 80.625 C45.36274664 79.61246029 43.94740119 78.06749635 41.8046875 74.5625 C40.80138257 72.72266643 39.82548668 70.86766791 38.875 69 C37.89431191 67.16608726 36.91254313 65.332752 35.9296875 63.5 C35.45112305 62.58992188 34.97255859 61.67984375 34.47949219 60.7421875 C31.64971558 55.49729461 28.49829432 50.44409685 25.38452148 45.36474609 C24 43 24 43 23.02734375 40.5390625 C21.82872166 37.57668851 20.27501636 35.07372641 18.5625 32.375 C14.45267909 25.83448303 10.59294412 19.16017906 6.76977539 12.44873047 C6.3236792 11.67029785 5.87758301 10.89186523 5.41796875 10.08984375 C5.02375732 9.39753662 4.6295459 8.70522949 4.22338867 7.99194336 C3.00353859 5.92514165 3.00353859 5.92514165 1.34887695 3.86938477 C0 2 0 2 0 0 Z " fill="#41B5E4" transform="translate(129,8)"/>
<path d="M0 0 C0.99 0 1.98 0 3 0 C3.28721924 0.51908936 3.57443848 1.03817871 3.87036133 1.57299805 C5.1834974 3.94500387 6.49798679 6.31625711 7.8125 8.6875 C8.26431641 9.50412109 8.71613281 10.32074219 9.18164062 11.16210938 C9.84389648 12.35610352 9.84389648 12.35610352 10.51953125 13.57421875 C10.9470166 14.34685059 11.37450195 15.11948242 11.81494141 15.91552734 C12.7645797 17.58590471 13.78371611 19.2166899 14.82421875 20.83203125 C16 23 16 23 16 27 C16.66 27 17.32 27 18 27 C19.5078125 28.9765625 19.5078125 28.9765625 21.125 31.625 C21.66382813 32.48351563 22.20265625 33.34203125 22.7578125 34.2265625 C24.28861438 37.6443906 24.61089597 39.28072157 24 43 C22.37910144 46.21515013 20.39408738 49.1483645 18.375 52.125 C14.37633955 58.21827963 10.75313225 64.21248463 7.640625 70.8125 C4.95388225 76.03245734 1.80886846 80.97482666 -1.30688477 85.94750977 C-1.76893311 86.68799561 -2.23098145 87.42848145 -2.70703125 88.19140625 C-3.1244458 88.85342041 -3.54186035 89.51543457 -3.97192383 90.19750977 C-5.15175507 92.12971682 -5.15175507 92.12971682 -6 95 C-21.51 95 -37.02 95 -53 95 C-52.10089878 90.50449388 -51.63997597 89.09091216 -49.125 85.625 C-47.30920223 83.11573173 -45.95478003 80.88947835 -44.77734375 78.01171875 C-42.58667676 72.69478742 -39.46963132 67.87198341 -36.50628662 62.95965576 C-34.69368071 59.95417277 -32.89469673 56.94059048 -31.09765625 53.92578125 C-30.56470947 53.03197754 -30.56470947 53.03197754 -30.02099609 52.12011719 C-26.607581 46.375628 -23.3758835 40.54023442 -20.17456055 34.67602539 C-17.78420429 30.3254845 -15.20450129 26.21046805 -12.36328125 22.13671875 C-10.07525639 18.55061675 -8.31228682 14.70375264 -6.4453125 10.88671875 C-4.51754896 7.03640184 -2.4985203 3.51143394 0 0 Z " fill="#123B4C" transform="translate(114,12)"/>
<path d="M0 0 C2.64 0 5.28 0 8 0 C8.18175781 0.63808594 8.36351563 1.27617187 8.55078125 1.93359375 C8.92783203 3.17302734 8.92783203 3.17302734 9.3125 4.4375 C9.67794922 5.67306641 9.67794922 5.67306641 10.05078125 6.93359375 C10.36402344 7.61550781 10.67726562 8.29742187 11 9 C11.99 9.33 12.98 9.66 14 10 C17 16.11111111 17 16.11111111 17 19 C17.99 19.33 18.98 19.66 20 20 C21.16796875 21.99609375 21.16796875 21.99609375 22.1875 24.4375 C22.53167969 25.24058594 22.87585938 26.04367188 23.23046875 26.87109375 C24 29 24 29 24 31 C24.66 31 25.32 31 26 31 C27.59704238 33.36874756 29.0649879 35.72322203 30.5 38.1875 C30.90347656 38.86103516 31.30695313 39.53457031 31.72265625 40.22851562 C33.34027573 42.96458819 34.83669097 45.5807973 35.9921875 48.546875 C37.69197902 52.68435203 40.37335771 56.24070777 42.8984375 59.91601562 C45.16949063 63.3262821 46 64.78524823 46 69 C46.66 69 47.32 69 48 69 C49.47265625 71.046875 49.47265625 71.046875 51.0625 73.75 C51.58972656 74.63171875 52.11695313 75.5134375 52.66015625 76.421875 C53.83826723 78.68879408 54.39503096 80.5535901 55 83 C55.680625 83.680625 56.36125 84.36125 57.0625 85.0625 C57.701875 85.701875 58.34125 86.34125 59 87 C59 87.99 59 88.98 59 90 C77.48 90 95.96 90 115 90 C115 89.34 115 88.68 115 88 C114.34 88 113.68 88 113 88 C112.443125 86.576875 112.443125 86.576875 111.875 85.125 C110.12361022 81.02740881 107.85811887 77.31991188 105.53125 73.52734375 C104.16642671 71.27468898 102.88178212 69.00150761 101.625 66.6875 C99.59126061 62.97201458 97.38149203 59.39685081 95.125 55.8125 C92.34507036 51.33863193 89.87179732 46.8668286 87.5625 42.125 C83.82121431 34.46427216 79.45924834 27.25924149 75 20 C73.30605963 17.23303669 71.62011139 14.46136294 69.9375 11.6875 C69.54320801 11.0469165 69.14891602 10.40633301 68.74267578 9.74633789 C66 5.22577443 66 5.22577443 66 3 C65.34 3 64.68 3 64 3 C64 2.01 64 1.02 64 0 C67.3125 -0.25 67.3125 -0.25 71 0 C72.9375 1.875 72.9375 1.875 74 4 C74 4.66 74 5.32 74 6 C74.66 6 75.32 6 76 6 C77.41015625 8.09765625 77.41015625 8.09765625 79.0625 11.0625 C79.68125 12.155625 80.3 13.24875 80.9375 14.375 C81.43636719 15.25865234 81.43636719 15.25865234 81.9453125 16.16015625 C83.76134238 19.32811949 85.66824276 22.44092691 87.5625 25.5625 C90.79269173 30.9090478 93.87474542 36.31148712 96.80859375 41.828125 C98.05999828 44.18333502 98.05999828 44.18333502 100 47 C100 48.32 100 49.64 100 51 C100.66 51 101.32 51 102 51 C104 54 104 54 104 58 C104.66 58 105.32 58 106 58 C107.3871222 59.99661529 108.6441653 61.97226928 109.875 64.0625 C110.23360107 64.6608667 110.59220215 65.2592334 110.96166992 65.87573242 C111.98040882 67.58027235 112.9904565 69.28999788 114 71 C114.64775391 72.05960938 114.64775391 72.05960938 115.30859375 73.140625 C117.44878813 76.70483976 118.92325246 80.2647592 120.19140625 84.203125 C121.1280632 86.2845849 122.37002528 87.42744986 124 89 C124.33333333 90.33333333 124.66666667 91.66666667 125 93 C125.515625 93.515625 126.03125 94.03125 126.5625 94.5625 C127.036875 95.036875 127.51125 95.51125 128 96 C128 96.99 128 97.98 128 99 C104.24 99 80.48 99 56 99 C54.35 95.7 52.7 92.4 51 89 C49.67494244 86.99450748 48.34480538 84.99230426 47 83 C47 82.34 47 81.68 47 81 C46.01 80.67 45.02 80.34 44 80 C43.09640194 77.98428125 42.20436682 75.96285525 41.359375 73.921875 C39.3959727 69.70168844 36.96983398 65.80073007 34.52490234 61.84521484 C31.72568277 57.29386839 29.15781921 52.64343332 26.61523438 47.94433594 C23.81790352 42.84521107 20.87516068 37.83166674 17.9375 32.8125 C17.33873047 31.78447266 16.73996094 30.75644531 16.12304688 29.69726562 C13.14917058 24.60617181 10.14167362 19.55136952 6.95361328 14.59106445 C5.69727004 12.49490754 4.89590275 10.2696203 4 8 C3.29875 6.948125 2.5975 5.89625 1.875 4.8125 C0 2 0 2 0 0 Z " fill="#4DB8E3" transform="translate(118,8)"/>
<path d="M0 0 C1.36913531 0.6878431 2.72990446 1.39257826 4.08203125 2.11328125 C4.76716797 2.45294922 5.45230469 2.79261719 6.15820312 3.14257812 C10.46298973 5.35919105 13.61237408 7.79658596 16.89453125 11.42578125 C17.78140625 12.37453125 18.66828125 13.32328125 19.58203125 14.30078125 C22.94856926 18.85015694 23.92751186 22.47992504 23.83203125 28.11328125 C22.89453125 31.42578125 22.89453125 31.42578125 21.08203125 33.86328125 C15.23491459 36.72951491 8.12952555 36.33868848 1.89453125 34.61328125 C-2.05491517 32.87917557 -5.16933725 30.02569507 -8.35546875 27.17578125 C-8.86335937 26.72227295 -9.37125 26.26876465 -9.89453125 25.80151367 C-14.09849422 21.84014049 -17.52886917 17.55848765 -18.6015625 11.73046875 C-18.39593357 3.20372234 -18.39593357 3.20372234 -15.10546875 -0.57421875 C-9.77067594 -2.35248302 -5.09976278 -2.25474774 0 0 Z " fill="#F0F8FB" transform="translate(169.10546875,21.57421875)"/>
<path d="M0 0 C0.495 1.485 0.495 1.485 1 3 C1.66 3 2.32 3 3 3 C3.64001953 4.13308594 3.64001953 4.13308594 4.29296875 5.2890625 C7.51690067 10.96584159 10.76530786 16.62333785 14.109375 22.23046875 C19.62487256 31.47855291 25.01151255 40.73191996 29.96630859 50.29345703 C32.48232898 55.11670427 35.2574026 59.69021309 38.234375 64.24609375 C40.3432575 67.53539057 42.34640918 70.87388896 44.3125 74.25 C44.96863281 75.36890625 45.62476563 76.4878125 46.30078125 77.640625 C48.06354515 81.12562949 49.05720643 84.22882573 50 88 C50.66 88 51.32 88 52 88 C52 88.66 52 89.32 52 90 C33.52 90 15.04 90 -4 90 C-4.66 88.02 -5.32 86.04 -6 84 C-6.99 83.67 -7.98 83.34 -9 83 C-9.78468946 81.29983951 -10.56080903 79.59331218 -11.23828125 77.84765625 C-12.03698152 75.78022994 -12.03698152 75.78022994 -13.6875 73.1875 C-15 71 -15 71 -15 69 C-15.66 69 -16.32 69 -17 69 C-17.350625 68.071875 -17.70125 67.14375 -18.0625 66.1875 C-19.47983158 62.86043056 -21.26287813 59.95613906 -23.25 56.9375 C-26.79935444 51.50819088 -29.62900359 45.90663969 -32.421875 40.06640625 C-33.76918772 37.44848425 -35.23588654 35.3326681 -37 33 C-37 32.34 -37 31.68 -37 31 C-37.66 31 -38.32 31 -39 31 C-39.24234375 30.40832031 -39.4846875 29.81664063 -39.734375 29.20703125 C-41.71348562 24.54089737 -43.78401142 20.94217955 -47 17 C-47.495 15.824375 -47.99 14.64875 -48.5 13.4375 C-49.95677952 10.09904694 -51.27529272 8.34888559 -54 6 C-53.67 5.34 -53.34 4.68 -53 4 C-52.34 4.33 -51.68 4.66 -51 5 C-50.67 4.34 -50.34 3.68 -50 3 C-44.42494727 12.20916118 -38.95554061 21.47028684 -33.6315918 30.82739258 C-32.9651062 31.98984497 -32.9651062 31.98984497 -32.28515625 33.17578125 C-31.69553101 34.21085815 -31.69553101 34.21085815 -31.09399414 35.2668457 C-29.98991837 37.15709111 -29.98991837 37.15709111 -28 39 C-27.31567544 40.60816272 -26.63396549 42.21748378 -25.96484375 43.83203125 C-22.34851596 51.95778801 -17.51579261 59.49538969 -12.8359375 67.03515625 C-7 76.45957447 -7 76.45957447 -7 79 C-6.278125 78.896875 -5.55625 78.79375 -4.8125 78.6875 C-0.85424373 79.12730625 0.42768126 81.08007062 3 84 C5.83007002 86.83007002 8.61952852 86.35245926 12.4140625 86.4140625 C13.14370209 86.43342865 13.87334167 86.4527948 14.62509155 86.4727478 C16.95827502 86.53258422 19.29150773 86.57894423 21.625 86.625 C23.20575082 86.66317614 24.78648076 86.70222765 26.3671875 86.7421875 C30.2446223 86.83828878 34.12215449 86.92230412 38 87 C38 85.02 38 83.04 38 81 C39.32 80.67 40.64 80.34 42 80 C36.36483983 68.3055554 36.36483983 68.3055554 29.48828125 57.3203125 C27.25806155 53.84327707 25.54009266 50.13377748 23.73706055 46.42211914 C21.21372892 41.29136762 18.30296482 36.48037981 15.25 31.64453125 C11.9516167 26.3746143 8.91502228 20.94587596 5.85644531 15.53442383 C3.94450215 12.18782704 2.10408863 9.12853897 -0.328125 6.125 C-2 4 -2 4 -2 1 C-1.34 0.67 -0.68 0.34 0 0 Z " fill="#DAEDF4" transform="translate(181,8)"/>
<path d="M0 0 C3.53428169 1.87065537 5.44788808 3.54677009 6.8671875 7.23828125 C7.61192144 13.09943406 7.38258912 18.31671898 3.8671875 23.23828125 C0.23225741 26.69146484 -2.74985683 27.55530658 -7.6328125 27.80078125 C-11.34445652 27.66443514 -13.7612906 27.31675563 -16.6953125 24.98828125 C-20.86448528 20.28459914 -21.58595555 16.90055657 -21.44921875 10.7109375 C-20.84867985 6.0178372 -18.44271441 3.39407705 -15.0078125 0.36328125 C-10.11987439 -1.54939018 -4.9860735 -1.78074054 0 0 Z " fill="#173F4E" transform="translate(73.1328125,126.76171875)"/>
<path d="M0 0 C1.98 0 3.96 0 6 0 C7.828125 1.96875 7.828125 1.96875 9.25 4.5 C10.12521057 6.02456034 11.03296315 7.53196815 12 9 C12.66 9 13.32 9 14 9 C15.65 6.03 17.3 3.06 19 0 C20.98 0 22.96 0 25 0 C25 0.66 25 1.32 25 2 C25.99 2 26.98 2 28 2 C28 11.24 28 20.48 28 30 C26.02 30 24.04 30 22 30 C22 29.34 22 28.68 22 28 C21.01 28 20.02 28 19 28 C18.67 25.36 18.34 22.72 18 20 C17.01 20.99 16.02 21.98 15 23 C10.125 18.25 10.125 18.25 9 16 C8.67 20.62 8.34 25.24 8 30 C6.35 30 4.7 30 3 30 C3 29.34 3 28.68 3 28 C2.01 28 1.02 28 0 28 C0 18.76 0 9.52 0 0 Z " fill="#183F4F" transform="translate(15,126)"/>
<path d="M0 0 C3.81445312 0.79101562 3.81445312 0.79101562 5.484375 2.671875 C5.90203125 3.35765625 6.3196875 4.0434375 6.75 4.75 C7.17796875 5.42546875 7.6059375 6.1009375 8.046875 6.796875 C9.19249475 9.44494688 9.34241718 11.13901439 9 14 C7.96875 15.96484375 7.96875 15.96484375 6.5 17.9375 C0.5110325 26.42423594 -4.50835775 35.64241197 -9 45 C-13.95 45 -18.9 45 -24 45 C-23.17785687 40.88928435 -22.63882215 38.95366752 -20.6875 35.5 C-20.15640625 34.55511719 -19.6253125 33.61023438 -19.078125 32.63671875 C-18.38541667 31.42447917 -17.69270833 30.21223958 -17 29 C-16.03620488 27.29832061 -15.07268621 25.59648463 -14.109375 23.89453125 C-13.05272387 22.03349034 -11.99542559 20.17281673 -10.9375 18.3125 C-10.43114014 17.42175781 -9.92478027 16.53101562 -9.40307617 15.61328125 C-6.38299894 10.33072547 -3.25993514 5.1381363 0 0 Z " fill="#184151" transform="translate(142,62)"/>
<path d="M0 0 C6 0 6 0 9 2 C10.07136051 4.30144109 11.07989717 6.6340213 12 9 C12.66 9 13.32 9 14 9 C15.65 6.03 17.3 3.06 19 0 C21.31 0 23.62 0 26 0 C26 0.66 26 1.32 26 2 C26.66 2 27.32 2 28 2 C28 11.24 28 20.48 28 30 C26.02 30 24.04 30 22 30 C22 29.34 22 28.68 22 28 C21.34 28 20.68 28 20 28 C20 24.37 20 20.74 20 17 C19.34 17 18.68 17 18 17 C17.01 19.475 17.01 19.475 16 22 C14.171875 21.78515625 14.171875 21.78515625 12 21 C9.96109043 18.16162325 8.58693362 15.12978576 7 12 C6.67 17.28 6.34 22.56 6 28 C4.02 28 2.04 28 0 28 C0 18.76 0 9.52 0 0 Z " fill="#1C4352" transform="translate(205,126)"/>
<path d="M0 0 C5 0 5 0 6.625 1.0625 C9.19364134 4.68194916 10.60515841 8.81547524 12 13 C12.66 13 13.32 13 14 13 C14.33 8.71 14.66 4.42 15 0 C16.98 0 18.96 0 21 0 C21 0.66 21 1.32 21 2 C21.66 2 22.32 2 23 2 C23 11.24 23 20.48 23 30 C17.83938584 28.96787717 17.15081264 28.76064735 14 25 C12.66666667 23 11.33333333 21 10 19 C9.34 18.67 8.68 18.34 8 18 C8 21.96 8 25.92 8 30 C6.35 30 4.7 30 3 30 C3 29.34 3 28.68 3 28 C2.01 28 1.02 28 0 28 C0 18.76 0 9.52 0 0 Z " fill="#1C4251" transform="translate(92,126)"/>
<path d="M0 0 C12.33333333 0 12.33333333 0 16 3 C16.68964844 3.41894531 17.37929688 3.83789062 18.08984375 4.26953125 C20 6 20 6 20.6015625 8.5234375 C20.66248715 15.93593673 20.66248715 15.93593673 18.859375 18.83203125 C16.22060354 21.24164625 14.14892696 21.98621047 10.625 22.3125 C9.75875 22.209375 8.8925 22.10625 8 22 C8 24.64 8 27.28 8 30 C6.35 30 4.7 30 3 30 C3 29.34 3 28.68 3 28 C2.01 28 1.02 28 0 28 C0 18.76 0 9.52 0 0 Z " fill="#1E4454" transform="translate(274,126)"/>
<path d="M0 0 C3.27914568 0.56536994 4.93380808 1.3703012 7 4 C8.39640986 6.93981024 9 8.72236256 9 12 C-13.77 12 -36.54 12 -60 12 C-59 8 -59 8 -57 6 C-54.67147827 5.7215271 -54.67147827 5.7215271 -51.72412109 5.68115234 C-50.6231308 5.66128265 -49.5221405 5.64141296 -48.38778687 5.62094116 C-47.19505157 5.60938995 -46.00231628 5.59783875 -44.7734375 5.5859375 C-43.55548492 5.56657135 -42.33753235 5.5472052 -41.08267212 5.5272522 C-37.1801867 5.46731785 -33.27767201 5.42101529 -29.375 5.375 C-26.7343619 5.33683301 -24.09373643 5.29778205 -21.453125 5.2578125 C-14.96886174 5.16160496 -8.48452292 5.07659824 -2 5 C-1.34 3.35 -0.68 1.7 0 0 Z " fill="#3BB3E3" transform="translate(235,93)"/>
<path d="M0 0 C0.70189453 0.01353516 1.40378906 0.02707031 2.12695312 0.04101562 C3.85579829 0.07629818 5.58424765 0.13010417 7.3125 0.1875 C6.80592304 5.26862044 5.17426071 8.53192556 2.4375 12.8125 C1.73882812 13.91851562 1.04015625 15.02453125 0.3203125 16.1640625 C-0.34226562 17.16179687 -1.00484375 18.15953125 -1.6875 19.1875 C-2.10902344 19.97382812 -2.53054687 20.76015625 -2.96484375 21.5703125 C-5.2698941 23.73423732 -7.21245024 23.59840072 -10.28320312 23.5390625 C-11.31864258 23.48878906 -11.31864258 23.48878906 -12.375 23.4375 C-13.4278418 23.41042969 -13.4278418 23.41042969 -14.50195312 23.3828125 C-16.23105436 23.33576213 -17.95945205 23.26401873 -19.6875 23.1875 C-19.17384367 18.10541541 -17.38742484 14.32384332 -14.8125 10 C-14.46058594 9.38447266 -14.10867187 8.76894531 -13.74609375 8.13476562 C-9.73462221 1.25263137 -8.02830662 -0.2923473 0 0 Z " fill="#F5F6F6" transform="translate(100.6875,70.8125)"/>
<path d="M0 0 C5.28 0 10.56 0 16 0 C16 0.66 16 1.32 16 2 C16.66 2 17.32 2 18 2 C18 3.65 18 5.3 18 7 C14.7 7 11.4 7 8 7 C8 7.99 8 8.98 8 10 C9.98 10 11.96 10 14 10 C14 10.66 14 11.32 14 12 C14.66 12 15.32 12 16 12 C16 13.65 16 15.3 16 17 C13.36 17 10.72 17 8 17 C8 18.98 8 20.96 8 23 C10.64 23 13.28 23 16 23 C16 24.65 16 26.3 16 28 C10.72 28 5.44 28 0 28 C0 18.76 0 9.52 0 0 Z " fill="#1C4352" transform="translate(126,126)"/>
<path d="M0 0 C2.31 0 4.62 0 7 0 C7.23074219 0.72703125 7.46148437 1.4540625 7.69921875 2.203125 C9.8296319 8.77119718 12.23268366 15.09974894 15.046875 21.40625 C16 24 16 24 16 28 C14.02 28 12.04 28 10 28 C9.34 26.02 8.68 24.04 8 22 C4.7 22 1.4 22 -2 22 C-2.33 23.98 -2.66 25.96 -3 28 C-4.98 28 -6.96 28 -9 28 C-8.82041748 27.46705322 -8.64083496 26.93410645 -8.45581055 26.38500977 C-6.51188291 20.58835431 -4.64511714 14.77019997 -2.8125 8.9375 C-2.40354492 7.6390918 -2.40354492 7.6390918 -1.98632812 6.31445312 C-1.32355085 4.2098446 -0.66145111 2.10502562 0 0 Z " fill="#1B4151" transform="translate(249,126)"/>
<path d="M0 0 C0 4.29 0 8.58 0 13 C0.99 13.33 1.98 13.66 3 14 C3.99 15.485 3.99 15.485 5 17 C8.33616448 18.18002177 11.70734453 19.03807523 15.12890625 19.9375 C16.55009766 20.4634375 16.55009766 20.4634375 18 21 C18.33 21.99 18.66 22.98 19 24 C11.57142857 24.14285714 11.57142857 24.14285714 8 23 C8.66627512 26.11596912 8.66627512 26.11596912 11.06640625 27.16796875 C12.30197266 27.67263672 12.30197266 27.67263672 13.5625 28.1875 C14.38878906 28.53167969 15.21507812 28.87585938 16.06640625 29.23046875 C17.02353516 29.61138672 17.02353516 29.61138672 18 30 C18 31.32 18 32.64 18 34 C12.10708014 34.75228764 9.04571641 33.2998013 4.27734375 29.84375 C-8.28648323 19.67200671 -8.28648323 19.67200671 -9.30859375 11.546875 C-9.50556055 7.46429034 -9.55567311 4.86438039 -7.3125 1.375 C-5 0 -5 0 0 0 Z " fill="#F5FAFC" transform="translate(160,22)"/>
<path d="M0 0 C4.05723077 1.35241026 5.49085419 3.60926242 8 7 C8 7.99 8 8.98 8 10 C26.48 10 44.96 10 64 10 C64 10.33 64 10.66 64 11 C62.97642647 11.00213753 62.97642647 11.00213753 61.93217468 11.00431824 C54.84312512 11.02397286 47.75494153 11.07815563 40.66625977 11.15258789 C38.0191875 11.17581495 35.37202221 11.19017456 32.72485352 11.19555664 C28.92404888 11.20481127 25.12471721 11.24572935 21.32421875 11.29296875 C20.13664474 11.2890361 18.94907074 11.28510345 17.72550964 11.28105164 C16.0741375 11.31051628 16.0741375 11.31051628 14.3894043 11.34057617 C12.93379341 11.35056892 12.93379341 11.35056892 11.44877625 11.36076355 C8.27670229 11.88376729 8.27670229 11.88376729 6 17 C28.77 17 51.54 17 75 17 C75.495 15.515 75.495 15.515 76 14 C76.495 16.475 76.495 16.475 77 19 C53.24 19 29.48 19 5 19 C3.35 15.7 1.7 12.4 0 9 C-0.66 8.34 -1.32 7.68 -2 7 C-1.43181818 1.43181818 -1.43181818 1.43181818 0 0 Z " fill="#67BEE1" transform="translate(169,88)"/>
<path d="M0 0 C3.46738269 4.07178885 6.10027425 8.3823947 8.75 13 C11.79004385 18.2474678 14.88035365 23.43903669 18.125 28.5625 C21.4769295 33.95121563 24.29405942 39.49413959 27.06860352 45.19067383 C29.4952337 50.12321246 32.23221604 54.7300527 35.2578125 59.32421875 C37.2334113 62.35849045 39.09593166 65.44514636 40.9375 68.5625 C41.81728516 70.04943359 41.81728516 70.04943359 42.71484375 71.56640625 C44 74 44 74 44 76 C45.65 76 47.3 76 49 76 C49.33 76.66 49.66 77.32 50 78 C47.69 77.67 45.38 77.34 43 77 C43.33 78.32 43.66 79.64 44 81 C41.22340623 79.61170312 40.91016654 77.61384493 39.796875 74.84765625 C38.95605367 72.78561391 38.95605367 72.78561391 37.3125 70.1875 C36 68 36 68 36 66 C35.34 66 34.68 66 34 66 C33.649375 65.071875 33.29875 64.14375 32.9375 63.1875 C31.52016842 59.86043056 29.73712187 56.95613906 27.75 53.9375 C24.20064556 48.50819088 21.37099641 42.90663969 18.578125 37.06640625 C17.23081228 34.44848425 15.76411346 32.3326681 14 30 C14 29.34 14 28.68 14 28 C13.34 28 12.68 28 12 28 C11.75765625 27.40832031 11.5153125 26.81664063 11.265625 26.20703125 C9.28651438 21.54089737 7.21598858 17.94217955 4 14 C3.505 12.824375 3.01 11.64875 2.5 10.4375 C1.04322048 7.09904694 -0.27529272 5.34888559 -3 3 C-2.67 2.34 -2.34 1.68 -2 1 C-1.34 1.33 -0.68 1.66 0 2 C0 1.34 0 0.68 0 0 Z " fill="#CFEAF3" transform="translate(130,11)"/>
<path d="M0 0 C1.9375 0.3125 1.9375 0.3125 4 1 C4.33 1.99 4.66 2.98 5 4 C7.31 4.33 9.62 4.66 12 5 C12.66 6.65 13.32 8.3 14 10 C10.18510326 11.46726798 7.70988378 10.43336419 4 9 C4 9.99 4 10.98 4 12 C4.97839844 12.29003906 4.97839844 12.29003906 5.9765625 12.5859375 C7.78150891 13.1236944 9.58484185 13.66688967 11.38671875 14.21484375 C13.39510391 14.81825992 15.41431826 15.38572316 17.4375 15.9375 C20.4686713 17.19432712 21.53460937 18.06921873 23 21 C23.1875 24.25 23.1875 24.25 23 27 C22.01 27 21.02 27 20 27 C20 28.65 20 30.3 20 32 C19.01 31.67 18.02 31.34 17 31 C16.67 30.34 16.34 29.68 16 29 C14.17790028 28.24292527 14.17790028 28.24292527 12.0625 27.625 C8.18733624 26.27319869 8.18733624 26.27319869 6.5 23.8125 C6.335 23.214375 6.17 22.61625 6 22 C7.9375 21.4375 7.9375 21.4375 10 21 C10.33 21.33 10.66 21.66 11 22 C13.32817964 22.36760731 15.6618385 22.70241581 18 23 C17.67 22.34 17.34 21.68 17 21 C14.95338185 20.38220825 12.88663648 19.83044821 10.8125 19.3125 C5.47012137 17.73914014 2.15877699 16.29286575 -1.12109375 11.75 C-2.30259234 9.39750502 -2.4688359 7.57859743 -2 5 C-1.34 4.67 -0.68 4.34 0 4 C0 2.68 0 1.36 0 0 Z " fill="#50BAE3" transform="translate(161,23)"/>
<path d="M0 0 C0.33 0.99 0.66 1.98 1 3 C1.66 3 2.32 3 3 3 C3.42667969 3.75539063 3.85335937 4.51078125 4.29296875 5.2890625 C7.51690067 10.96584159 10.76530786 16.62333785 14.109375 22.23046875 C19.62259988 31.47474221 25.01014055 40.7230933 29.9597168 50.2824707 C32.53213084 55.21697562 35.37548132 59.90137591 38.42578125 64.55859375 C45 74.75434243 45 74.75434243 45 78 C44.34 78 43.68 78 43 78 C42.67 78.66 42.34 79.32 42 80 C41.49210937 78.94941406 40.98421875 77.89882812 40.4609375 76.81640625 C37.14420405 70.02750541 33.85175434 63.50679995 29.48828125 57.3203125 C27.25806155 53.84327707 25.54009266 50.13377748 23.73706055 46.42211914 C21.21372892 41.29136762 18.30296482 36.48037981 15.25 31.64453125 C11.9516167 26.3746143 8.91502228 20.94587596 5.85644531 15.53442383 C3.94450215 12.18782704 2.10408863 9.12853897 -0.328125 6.125 C-2 4 -2 4 -2 1 C-1.34 0.67 -0.68 0.34 0 0 Z " fill="#D3EBF3" transform="translate(181,8)"/>
<path d="M0 0 C2.31 0 4.62 0 7 0 C7.67408308 1.26691507 8.33900497 2.53870749 9 3.8125 C9.556875 4.87404297 9.556875 4.87404297 10.125 5.95703125 C11 8 11 8 11 11 C13.8326134 9.5836933 14.01707833 7.85502707 15.125 4.9375 C15.65480469 3.55884766 15.65480469 3.55884766 16.1953125 2.15234375 C16.46085937 1.44207031 16.72640625 0.73179688 17 0 C19.31 0 21.62 0 24 0 C23.27683594 1.27230469 23.27683594 1.27230469 22.5390625 2.5703125 C17.89712015 11.07219059 15.72710516 18.23601643 15 28 C13.02 28 11.04 28 9 28 C9.020625 27.40316406 9.04125 26.80632812 9.0625 26.19140625 C8.82916633 16.37680855 4.39807369 8.5456876 0 0 Z " fill="#194050" transform="translate(151,126)"/>
<path d="M0 0 C2.5 1.375 2.5 1.375 4 4 C4.73430028 8.6046747 4.8440582 12.52289815 2.5 16.625 C-1.05435077 18.57989292 -4.04061486 18.90871134 -8 18 C-10.78570637 15.84107756 -11.78058325 14.28450225 -12.375 10.8046875 C-12.5720674 7.07272365 -12.40702693 4.69533767 -10.5 1.4375 C-6.94552619 -0.60632244 -4.00129091 -0.77074046 0 0 Z " fill="#F6F7F7" transform="translate(70,131)"/>
<path d="M0 0 C1.33895632 1.66215268 2.67130142 3.32963607 4 5 C4.515625 5.61875 5.03125 6.2375 5.5625 6.875 C7 9 7 9 8.25 12.03515625 C10.24564769 16.77213223 12.8397679 21.13557501 15.4375 25.5625 C15.91509766 26.38685547 16.39269531 27.21121094 16.88476562 28.06054688 C19.45701644 32.4746563 22.11110726 36.78617772 25 41 C24.67 41.66 24.34 42.32 24 43 C23.505 42.505 23.505 42.505 23 42 C22.566875 43.7015625 22.566875 43.7015625 22.125 45.4375 C21.75375 46.613125 21.3825 47.78875 21 49 C20.01 49.495 20.01 49.495 19 50 C19.19529297 49.1646875 19.19529297 49.1646875 19.39453125 48.3125 C20.26269516 43.50920061 20.28339434 40.72791408 17.5625 36.5625 C17.08941406 35.92441406 16.61632812 35.28632812 16.12890625 34.62890625 C15 33 15 33 15 31 C14.34 31 13.68 31 13 31 C12.58878906 30.00226562 12.17757812 29.00453125 11.75390625 27.9765625 C10.04080544 23.97899196 8.02549668 20.18685294 5.9375 16.375 C2.23636619 9.61109307 2.23636619 9.61109307 0.87890625 6.1015625 C0.1957849 3.82596704 0.1957849 3.82596704 -2 3 C-1.34 3 -0.68 3 0 3 C0 2.01 0 1.02 0 0 Z " fill="#E0EBEF" transform="translate(117,8)"/>
<path d="M0 0 C0.99 0 1.98 0 3 0 C6.39293332 3.39293332 6.57230319 6.00306115 8 11 C-6.19 11 -20.38 11 -35 11 C-35 10.67 -35 10.34 -35 10 C-24.44 10 -13.88 10 -3 10 C-3.33 8.35 -3.66 6.7 -4 5 C-3.34 4.01 -2.68 3.02 -2 2 C-1.34 2 -0.68 2 0 2 C0 1.34 0 0.68 0 0 Z " fill="#F6FAFC" transform="translate(224,86)"/>
<path d="M0 0 C0.33 0.99 0.66 1.98 1 3 C15.85 3 30.7 3 46 3 C46 3.66 46 4.32 46 5 C30.49 5 14.98 5 -1 5 C-0.67 3.35 -0.34 1.7 0 0 Z " fill="#566E7A" transform="translate(62,102)"/>
<path d="M0 0 C3.13025051 2.99415266 3.95039301 4.25589516 4.25 8.75 C4.17465868 13.94855113 2.3904375 17.39230664 -1 21.3125 C-4.20240641 24.0145304 -7.02017423 24.15773324 -11.0625 24.1875 C-12.37927734 24.20876953 -12.37927734 24.20876953 -13.72265625 24.23046875 C-16 24 -16 24 -18 22 C-17.34773438 21.97421875 -16.69546875 21.9484375 -16.0234375 21.921875 C-10.31648878 21.55151255 -6.41147116 20.97032404 -2 17 C-0.02577907 13.13885362 0.21954422 9.98926178 0.125 5.6875 C0.10695313 4.61886719 0.08890625 3.55023438 0.0703125 2.44921875 C0.04710938 1.64097656 0.02390625 0.83273438 0 0 Z " fill="#949798" transform="translate(79,132)"/>
<path d="M0 0 C0.99 0.33 1.98 0.66 3 1 C3.90068234 10.52388173 3.90068234 10.52388173 1.875 13.84375 C-0.7846086 16.22631604 -2.84923846 16.9860406 -6.375 17.3125 C-7.24125 17.209375 -8.1075 17.10625 -9 17 C-9 19.64 -9 22.28 -9 25 C-10.65 25 -12.3 25 -14 25 C-14 24.34 -14 23.68 -14 23 C-13.01 23 -12.02 23 -11 23 C-11 20.36 -11 17.72 -11 15 C-8.03 14.34 -5.06 13.68 -2 13 C-1.34 8.71 -0.68 4.42 0 0 Z " fill="#8F9597" transform="translate(291,131)"/>
<path d="M0 0 C0.33 0.66 0.66 1.32 1 2 C1.66 2 2.32 2 3 2 C3 11.24 3 20.48 3 30 C1.02 30 -0.96 30 -3 30 C-3 29.34 -3 28.68 -3 28 C-2.01 28 -1.02 28 0 28 C0 18.76 0 9.52 0 0 Z " fill="#969B9D" transform="translate(230,126)"/>
<path d="M0 0 C0.99 0.66 1.98 1.32 3 2 C3.1875 4.625 3.1875 4.625 3 7 C2.34 7 1.68 7 1 7 C1 8.65 1 10.3 1 12 C0.01 11.67 -0.98 11.34 -2 11 C-2.33 10.34 -2.66 9.68 -3 9 C-4.82209972 8.24292527 -4.82209972 8.24292527 -6.9375 7.625 C-10.81266376 6.27319869 -10.81266376 6.27319869 -12.5 3.8125 C-12.665 3.214375 -12.83 2.61625 -13 2 C-11.0625 1.4375 -11.0625 1.4375 -9 1 C-8.67 1.33 -8.34 1.66 -8 2 C-6.65252916 2.23075082 -5.29622435 2.41153063 -3.9375 2.5625 C-2.638125 2.706875 -1.33875 2.85125 0 3 C0 2.01 0 1.02 0 0 Z " fill="#49B8E4" transform="translate(180,43)"/>
<path d="M0 0 C0.99 0 1.98 0 3 0 C3 9.24 3 18.48 3 28 C1.02 28 -0.96 28 -3 28 C-3 27.34 -3 26.68 -3 26 C-2.01 26 -1.02 26 0 26 C0 17.42 0 8.84 0 0 Z " fill="#979A9C" transform="translate(40,128)"/>
<path d="M0 0 C0.99 0.33 1.98 0.66 3 1 C1.59384714 4.73615494 -0.14446561 8.12823951 -2.0625 11.625 C-5.03195145 17.44830382 -5.97442809 22.50473407 -6 29 C-7.98 29 -9.96 29 -12 29 C-12 28.34 -12 27.68 -12 27 C-10.68 27 -9.36 27 -8 27 C-8.04640625 26.39414063 -8.0928125 25.78828125 -8.140625 25.1640625 C-8.55909145 15.44966275 -4.95756089 8.14456432 0 0 Z " fill="#9B9D9E" transform="translate(174,127)"/>
<path d="M0 0 C0.66 0 1.32 0 2 0 C2 1.65 2 3.3 2 5 C-1.3 5 -4.6 5 -8 5 C-8 5.99 -8 6.98 -8 8 C-6.02 8 -4.04 8 -2 8 C-2 8.66 -2 9.32 -2 10 C-1.34 10 -0.68 10 0 10 C0 11.65 0 13.3 0 15 C-2.64 15 -5.28 15 -8 15 C-8 16.98 -8 18.96 -8 21 C-8.66 21 -9.32 21 -10 21 C-10 18.36 -10 15.72 -10 13 C-7.69 13 -5.38 13 -3 13 C-3 11.68 -3 10.36 -3 9 C-5.31 9 -7.62 9 -10 9 C-10 7.02 -10 5.04 -10 3 C-6.7 3 -3.4 3 0 3 C0 2.01 0 1.02 0 0 Z " fill="#8C9295" transform="translate(142,128)"/>
<path d="M0 0 C3.08539112 2.72412697 5.11188908 6.09188781 7.25 9.5625 C7.62640625 10.15224609 8.0028125 10.74199219 8.390625 11.34960938 C9.3260331 12.86105004 10.17093646 14.42771031 11 16 C10.67 16.66 10.34 17.32 10 18 C9.67 17.67 9.34 17.34 9 17 C8.71125 18.134375 8.4225 19.26875 8.125 20.4375 C7.75375 21.613125 7.3825 22.78875 7 24 C6.34 24.33 5.68 24.66 5 25 C5.13019531 24.443125 5.26039063 23.88625 5.39453125 23.3125 C6.26269516 18.50920061 6.28339434 15.72791408 3.5625 11.5625 C3.08941406 10.92441406 2.61632812 10.28632812 2.12890625 9.62890625 C1 8 1 8 1 6 C0.34 6 -0.32 6 -1 6 C-0.67 4.02 -0.34 2.04 0 0 Z " fill="#D7E4EA" transform="translate(131,33)"/>
<path d="M0 0 C3.92491136 4.52874388 7.37459686 9.60598991 10 15 C9.67 15.66 9.34 16.32 9 17 C7.125 16.76953125 7.125 16.76953125 5 16 C3.875 14.07421875 3.875 14.07421875 3 11.6875 C1.52307323 8.00690472 0.1252803 5.56719453 -3 3 C-2.67 2.34 -2.34 1.68 -2 1 C-1.34 1.33 -0.68 1.66 0 2 C0 1.34 0 0.68 0 0 Z " fill="#C7E7F2" transform="translate(130,11)"/>
<path d="M0 0 C4 4 4 4 4.171875 7.671875 C4.05291406 9.03331691 3.91161343 10.39296025 3.75 11.75 C3.68425781 12.44738281 3.61851562 13.14476562 3.55078125 13.86328125 C3.38640673 15.57747263 3.19577346 17.28911023 3 19 C1.02 19 -0.96 19 -3 19 C-3 18.34 -3 17.68 -3 17 C-2.01 17 -1.02 17 0 17 C0 11.39 0 5.78 0 0 Z " fill="#B0B1B1" transform="translate(211,137)"/>
<path d="M0 0 C0.66 0 1.32 0 2 0 C2 9.24 2 18.48 2 28 C0.35 27.67 -1.3 27.34 -3 27 C-2.01 26.67 -1.02 26.34 0 26 C0 17.42 0 8.84 0 0 Z " fill="#9F9F9F" transform="translate(113,128)"/>
<path d="M0 0 C0.66 0 1.32 0 2 0 C2.99 1.98 3.98 3.96 5 6 C4.34 6 3.68 6 3 6 C3 9.96 3 13.92 3 18 C1.35 18 -0.3 18 -2 18 C-2 17.34 -2 16.68 -2 16 C-1.34 16 -0.68 16 0 16 C0 10.72 0 5.44 0 0 Z " fill="#8A9194" transform="translate(97,138)"/>
<path d="M0 0 C5 1 5 1 6 2 C6.1875 5.4375 6.1875 5.4375 6 9 C5.34 9.66 4.68 10.32 4 11 C2.68 11 1.36 11 0 11 C0 7.37 0 3.74 0 0 Z " fill="#C1C4C5" transform="translate(280,131)"/>
<path d="M0 0 C2 1 2 1 2.96142578 3.26904297 C3.44844971 4.74074951 3.44844971 4.74074951 3.9453125 6.2421875 C4.29980469 7.30824219 4.65429688 8.37429687 5.01953125 9.47265625 C5.38433594 10.59542969 5.74914062 11.71820313 6.125 12.875 C6.49753906 13.99003906 6.87007813 15.10507813 7.25390625 16.25390625 C10 24.59277701 10 24.59277701 10 28 C8.35 28 6.7 28 5 28 C4.67 27.34 4.34 26.68 4 26 C5.32 26 6.64 26 8 26 C7.23111927 23.66600631 6.46038233 21.3326694 5.6875 19 C5.4603833 18.31389648 5.2332666 17.62779297 4.99926758 16.92089844 C3.80341937 13.33122824 2.56562863 9.774829 1.1875 6.25 C0 3 0 3 0 0 Z " fill="#AFB0B1" transform="translate(257,128)"/>
<path d="M0 0 C0.33 0.66 0.66 1.32 1 2 C-1.01822917 2.42317708 -3.03645833 2.84635417 -5.0546875 3.26953125 C-7.37046549 3.92308838 -7.37046549 3.92308838 -9 7 C-9.45139459 9.0492094 -9.45139459 9.0492094 -9.625 11.1875 C-9.74875 12.445625 -9.8725 13.70375 -10 15 C-12.39286884 12.60713116 -12.32050616 11.90552906 -12.375 8.625 C-12.28452305 5.50354514 -12.10803947 4.18456743 -10.5 1.4375 C-6.85665449 -0.65742367 -4.16543193 -0.27769546 0 0 Z " fill="#97999A" transform="translate(70,131)"/>
<path d="M0 0 C2.81158409 2.49824489 4.44837831 5.278476 6.25 8.5625 C6.79140625 9.53316406 7.3328125 10.50382812 7.890625 11.50390625 C8.25671875 12.32761719 8.6228125 13.15132812 9 14 C8.67 14.66 8.34 15.32 8 16 C7.01 16.33 6.02 16.66 5 17 C4.566875 15.948125 4.13375 14.89625 3.6875 13.8125 C1.95292018 9.77060174 0.13637525 6.13637525 -3 3 C-2.01 3 -1.02 3 0 3 C0 2.01 0 1.02 0 0 Z " fill="#D5E4E9" transform="translate(146,58)"/>
<path d="M0 0 C0.33 0 0.66 0 1 0 C1 5.94 1 11.88 1 18 C0.67 18 0.34 18 0 18 C-0.33 15.36 -0.66 12.72 -1 10 C-1.99 10.99 -2.98 11.98 -4 13 C-4.99 12.01 -5.98 11.02 -7 10 C-6.5875 9.649375 -6.175 9.29875 -5.75 8.9375 C-3.29237593 6.21655906 -1.75948115 3.21560348 0 0 Z " fill="#979DA0" transform="translate(34,136)"/>
<path d="M0 0 C3.3 0 6.6 0 10 0 C10 0.66 10 1.32 10 2 C7.69 2 5.38 2 3 2 C2.34 3.98 1.68 5.96 1 8 C-0.98 8 -2.96 8 -5 8 C-5 7.34 -5 6.68 -5 6 C-3.68 6 -2.36 6 -1 6 C-0.67 4.02 -0.34 2.04 0 0 Z " fill="#A3A4A4" transform="translate(247,148)"/>
<path d="M0 0 C3.37535717 4.50047623 3.24570873 6.52358552 2.6875 11.75 C2.62626953 12.44738281 2.56503906 13.14476562 2.50195312 13.86328125 C2.34937092 15.57689681 2.17666411 17.2886995 2 19 C0.35 19 -1.3 19 -3 19 C-3 18.34 -3 17.68 -3 17 C-2.01 17 -1.02 17 0 17 C0 11.39 0 5.78 0 0 Z " fill="#979999" transform="translate(21,137)"/>
<path d="M0 0 C3.63 0.66 7.26 1.32 11 2 C10.67 2.66 10.34 3.32 10 4 C9.01 4.33 8.02 4.66 7 5 C7.66 5.66 8.32 6.32 9 7 C4.78087253 6.5205537 2.20336822 5.83374881 -1 3 C-0.67 2.01 -0.34 1.02 0 0 Z " fill="#6DC4E7" transform="translate(168,44)"/>
<path d="M0 0 C0.99 0 1.98 0 3 0 C3 1.65 3 3.3 3 5 C-2.28 5 -7.56 5 -13 5 C-13 4.34 -13 3.68 -13 3 C-8.71 3 -4.42 3 0 3 C0 2.01 0 1.02 0 0 Z " fill="#A0A1A1" transform="translate(142,151)"/>
<path d="M0 0 C1.09651823 3.41139003 0.94215473 6.20655581 0.5625 9.75 C0.46066406 10.73484375 0.35882813 11.7196875 0.25390625 12.734375 C0.12822266 13.85585937 0.12822266 13.85585937 0 15 C-1.98 15 -3.96 15 -6 15 C-6 14.34 -6 13.68 -6 13 C-4.68 13 -3.36 13 -2 13 C-2.02320313 12.31292969 -2.04640625 11.62585938 -2.0703125 10.91796875 C-2.08835938 10.01691406 -2.10640625 9.11585938 -2.125 8.1875 C-2.14820313 7.29417969 -2.17140625 6.40085938 -2.1953125 5.48046875 C-2 3 -2 3 0 0 Z " fill="#A0A0A0" transform="translate(168,141)"/>
<path d="M0 0 C3.16814294 3.0303976 3.96305733 4.24883247 4.1875 8.8125 C4.15598345 12.27301752 3.56594316 14.86811369 2 18 C0.81304447 14.43913342 0.64904582 11.02668976 0.4375 7.3125 C0.39431641 6.61060547 0.35113281 5.90871094 0.30664062 5.18554688 C0.2008264 3.45724794 0.09993419 1.7286489 0 0 Z " fill="#949799" transform="translate(79,132)"/>
<path d="M0 0 C0.66 0 1.32 0 2 0 C2 2.31 2 4.62 2 7 C1.34 7 0.68 7 0 7 C-0.66 8.65 -1.32 10.3 -2 12 C-3.32 11.34 -4.64 10.68 -6 10 C-5.34 10 -4.68 10 -4 10 C-3.71125 9.278125 -3.4225 8.55625 -3.125 7.8125 C-2.08333333 5.20833333 -1.04166667 2.60416667 0 0 Z " fill="#818A8D" transform="translate(223,136)"/>
<path d="M0 0 C1.33895632 1.66215268 2.67130142 3.32963607 4 5 C4.5775 5.721875 5.155 6.44375 5.75 7.1875 C7 9 7 9 7 11 C6.34 11 5.68 11 5 11 C4.67 11.66 4.34 12.32 4 13 C0 6.25 0 6.25 0 4 C-0.66 3.67 -1.32 3.34 -2 3 C-1.34 3 -0.68 3 0 3 C0 2.01 0 1.02 0 0 Z " fill="#DEE9ED" transform="translate(117,8)"/>
<path d="M0 0 C0.66 0.66 1.32 1.32 2 2 C1.34 2 0.68 2 0 2 C-0.33 2.66 -0.66 3.32 -1 4 C-1.99 3.67 -2.98 3.34 -4 3 C-3.67 4.32 -3.34 5.64 -3 7 C-3.99 7.495 -3.99 7.495 -5 8 C-5 6.02 -5 4.04 -5 2 C-7.31 2.33 -9.62 2.66 -12 3 C-9.83236701 -1.33526598 -4.16720314 -0.19843824 0 0 Z " fill="#CBE8F2" transform="translate(165,20)"/>
<path d="M0 0 C0.33 0.99 0.66 1.98 1 3 C5.29 3 9.58 3 14 3 C14 3.66 14 4.32 14 5 C9.05 5 4.1 5 -1 5 C-0.67 3.35 -0.34 1.7 0 0 Z " fill="#5F7681" transform="translate(119,102)"/>
<path d="M0 0 C0 0.66 0 1.32 0 2 C-1.32 2.33 -2.64 2.66 -4 3 C-4.33 5.64 -4.66 8.28 -5 11 C-6.65 11 -8.3 11 -10 11 C-10 10.34 -10 9.68 -10 9 C-9.01 9 -8.02 9 -7 9 C-7 6.36 -7 3.72 -7 1 C-2.25 0 -2.25 0 0 0 Z " fill="#989A9B" transform="translate(287,145)"/>
<path d="M0 0 C2.9375 0.75 2.9375 0.75 6 2 C6.875 4.125 6.875 4.125 7 6 C3.18510326 7.46726798 0.70988378 6.43336419 -3 5 C-1.68 4.67 -0.36 4.34 1 4 C0.67 2.68 0.34 1.36 0 0 Z " fill="#85CCE7" transform="translate(168,27)"/>
<path d="M0 0 C2.76223278 2.76223278 2.57856291 5.20706617 3 9 C1.35 9 -0.3 9 -2 9 C-1.125 1.125 -1.125 1.125 0 0 Z " fill="#959DA0" transform="translate(252,134)"/>
<path d="M0 0 C1.39456452 0.00667256 2.78911118 0.01863093 4.18359375 0.03515625 C4.89451172 0.03966797 5.60542969 0.04417969 6.33789062 0.04882812 C8.09899388 0.06064761 9.86005411 0.07858362 11.62109375 0.09765625 C11.29109375 1.41765625 10.96109375 2.73765625 10.62109375 4.09765625 C10.62109375 3.10765625 10.62109375 2.11765625 10.62109375 1.09765625 C8.68275379 1.18480642 6.74535085 1.29298589 4.80859375 1.41015625 C3.19017578 1.49716797 3.19017578 1.49716797 1.5390625 1.5859375 C-1.62500171 2.14081355 -2.36696778 2.73029648 -4.37890625 5.09765625 C-5.03890625 5.09765625 -5.69890625 5.09765625 -6.37890625 5.09765625 C-3.96778673 0.11467592 -3.96778673 0.11467592 0 0 Z " fill="#D2D8DA" transform="translate(96.37890625,70.90234375)"/>
<path d="M0 0 C3.26739717 1.63369858 3.71704704 4.70894675 5 8 C5.37308631 9.32276056 5.73046415 10.65232077 6 12 C5.01 12.33 4.02 12.66 3 13 C-0.42857143 4.57142857 -0.42857143 4.57142857 0 0 Z " fill="#C4E4F1" transform="translate(151,46)"/>
<path d="M0 0 C3.34373475 0.55728913 6.03312999 1.35173889 9 3 C9 3.66 9 4.32 9 5 C6.69 5 4.38 5 2 5 C1.34 3.35 0.68 1.7 0 0 Z " fill="#ECF5F9" transform="translate(170,41)"/>
<path d="M0 0 C1.32 1.65 2.64 3.3 4 5 C3.67 5.66 3.34 6.32 3 7 C2.67 6.67 2.34 6.34 2 6 C1.71125 7.134375 1.4225 8.26875 1.125 9.4375 C0.75375 10.613125 0.3825 11.78875 0 13 C-0.99 13.495 -0.99 13.495 -2 14 C-1.03644647 4.58997722 -1.03644647 4.58997722 0 0 Z " fill="#C7D6DC" transform="translate(138,44)"/>
<path d="M0 0 C0.66 0 1.32 0 2 0 C2 3.63 2 7.26 2 11 C1.67 11 1.34 11 1 11 C0.67 9.02 0.34 7.04 0 5 C-1.32 5.33 -2.64 5.66 -4 6 C-4.33 5.34 -4.66 4.68 -5 4 C-4.01 4 -3.02 4 -2 4 C-1.34 2.68 -0.68 1.36 0 0 Z " fill="#C6CDCF" transform="translate(223,143)"/>
<path d="M0 0 C1.32 1.32 2.64 2.64 4 4 C3.01 4.33 2.02 4.66 1 5 C1 8.96 1 12.92 1 17 C0.67 17 0.34 17 0 17 C0 11.39 0 5.78 0 0 Z " fill="#7B8589" transform="translate(211,137)"/>
<path d="M0 0 C0.66 0 1.32 0 2 0 C4.47346304 2.47346304 4.98313144 3.70761168 5.1875 7.25 C5.125625 8.1575 5.06375 9.065 5 10 C4.67 10 4.34 10 4 10 C3.34 8.02 2.68 6.04 2 4 C1.34 4.66 0.68 5.32 0 6 C-0.33 5.34 -0.66 4.68 -1 4 C-1.99 3.34 -2.98 2.68 -4 2 C-2.68 2 -1.36 2 0 2 C0 1.34 0 0.68 0 0 Z " fill="#82CCE8" transform="translate(179,40)"/>
<path d="M0 0 C0.66 0.33 1.32 0.66 2 1 C1.25 6.75 1.25 6.75 -1 9 C-1.66 8.67 -2.32 8.34 -3 8 C-1.125 2.25 -1.125 2.25 0 0 Z " fill="#8B9092" transform="translate(170,134)"/>
<path d="M0 0 C1.65 0.33 3.3 0.66 5 1 C4.01 1.33 3.02 1.66 2 2 C2 2.66 2 3.32 2 4 C2.99 4.33 3.98 4.66 5 5 C1.625 4.6875 1.625 4.6875 -2 4 C-2.66 3.01 -3.32 2.02 -4 1 C-2.68 1.33 -1.36 1.66 0 2 C0 1.34 0 0.68 0 0 Z " fill="#7AC5E4" transform="translate(167,36)"/>
<path d="M0 0 C3 1 3 1 5 4 C5 5.32 5 6.64 5 8 C2 7 2 7 0.8125 5.125 C0 3 0 3 0 0 Z " fill="#DFEFF5" transform="translate(138,27)"/>
<path d="M0 0 C0.33 0 0.66 0 1 0 C1 2.64 1 5.28 1 8 C-0.98 8 -2.96 8 -5 8 C-5 7.34 -5 6.68 -5 6 C-3.68 6 -2.36 6 -1 6 C-0.67 4.02 -0.34 2.04 0 0 Z " fill="#979B9C" transform="translate(247,148)"/>
<path d="M0 0 C1.37562854 1.28965176 2.70766393 2.62689293 4 4 C4 4.66 4 5.32 4 6 C3.34 6 2.68 6 2 6 C1.67 6.66 1.34 7.32 1 8 C-1.125 3.375 -1.125 3.375 0 0 Z " fill="#CEE2EA" transform="translate(120,13)"/>
<path d="M0 0 C0.33 0 0.66 0 1 0 C1.16682272 4.92127034 1.24828052 8.50343896 -1 13 C-2.12758089 9.61725734 -1.81750262 8.23221777 -1.0625 4.8125 C-0.86785156 3.91144531 -0.67320313 3.01039063 -0.47265625 2.08203125 C-0.23869141 1.05142578 -0.23869141 1.05142578 0 0 Z " fill="#B1B1B1" transform="translate(82,137)"/>
<path d="M0 0 C0.99 0.33 1.98 0.66 3 1 C3.33 2.98 3.66 4.96 4 7 C3.34 7 2.68 7 2 7 C0.5393715 4.35261084 0 3.10551666 0 0 Z " fill="#E4F2F7" transform="translate(148,44)"/>
<path d="M0 0 C1.9375 0.3125 1.9375 0.3125 4 1 C4.33 1.99 4.66 2.98 5 4 C3.35 4.33 1.7 4.66 0 5 C0 3.35 0 1.7 0 0 Z " fill="#6DC4E7" transform="translate(161,23)"/>
<path d="M0 0 C0.33 0.99 0.66 1.98 1 3 C1.66 3 2.32 3 3 3 C2.34 4.32 1.68 5.64 1 7 C-0.5 5.6875 -0.5 5.6875 -2 4 C-2 3.01 -2 2.02 -2 1 C-1.34 0.67 -0.68 0.34 0 0 Z " fill="#B5E0F1" transform="translate(181,8)"/>
</svg>